<?xml version="1.0" encoding="UTF-8" standalone="no"?>
<!-- Created with Inkscape (http://www.inkscape.org/) -->
<svg
   xmlns:dc="http://purl.org/dc/elements/1.1/"
   xmlns:cc="http://creativecommons.org/ns#"
   xmlns:rdf="http://www.w3.org/1999/02/22-rdf-syntax-ns#"
   xmlns:svg="http://www.w3.org/2000/svg"
   xmlns="http://www.w3.org/2000/svg"
   xmlns:sodipodi="http://sodipodi.sourceforge.net/DTD/sodipodi-0.dtd"
   xmlns:inkscape="http://www.inkscape.org/namespaces/inkscape"
   width="635.125"
   height="735.01385"
   id="svg2"
   sodipodi:version="0.32"
   inkscape:version="0.46dev+devel"
   version="1.0"
   sodipodi:docname="xmastree.svg"
   inkscape:output_extension="org.inkscape.output.svg.inkscape">
  <defs
     id="defs4">
    <inkscape:perspective
       sodipodi:type="inkscape:persp3d"
       id="perspective10"
       inkscape:vp_x="172.85714 : 581.42857 : 1"
       inkscape:vp_y="0 : 1000 : 0"
       inkscape:vp_z="1168.5714 : 561.42857 : 1"
       inkscape:persp3d-origin="522.85714 : 381.42857 : 1" />
  </defs>
  <sodipodi:namedview
     id="base"
     pagecolor="#ffffff"
     bordercolor="#666666"
     borderopacity="1.0"
     gridtolerance="10000"
     guidetolerance="10"
     objecttolerance="10"
     inkscape:pageopacity="0.0"
     inkscape:pageshadow="2"
     inkscape:zoom="0.24748737"
     inkscape:cx="361.36165"
     inkscape:cy="609.24844"
     inkscape:document-units="px"
     inkscape:current-layer="layer1"
     showgrid="false"
     inkscape:window-width="1680"
     inkscape:window-height="994"
     inkscape:window-x="-4"
     inkscape:window-y="-4" />
  <metadata
     id="metadata7">
    <rdf:RDF>
      <cc:Work
         rdf:about="">
        <dc:format>image/svg+xml</dc:format>
        <dc:type
           rdf:resource="http://purl.org/dc/dcmitype/StillImage" />
      </cc:Work>
    </rdf:RDF>
  </metadata>
  <g
     inkscape:label="Layer 1"
     inkscape:groupmode="layer"
     id="layer1"
     transform="translate(-2.90625,12.957673)">
    <g
       id="g3168">
      <g
         transform="translate(0,-62)"
         id="g3141">
        <path
           id="path3125"
           style="fill:#aa0000;fill-opacity:1;fill-rule:evenodd;stroke:#28170b;stroke-width:6.73032284;stroke-linecap:butt;stroke-linejoin:miter;marker:none;marker-start:none;marker-mid:none;marker-end:none;stroke-miterlimit:4;stroke-dashoffset:0;stroke-opacity:1;visibility:visible;display:inline;overflow:visible;enable-background:accumulate"
           d="M 400.06165,761.70054 C 400.06165,772.18329 366.0307,780.69103 324.09971,780.69103 C 282.16872,780.69103 248.13778,772.18329 248.13778,761.70054 L 218.44315,648.64804 C 218.44315,634.06743 265.77728,622.2339 324.09971,622.2339 C 382.42213,622.2339 429.75627,634.06743 429.75627,648.64804 L 400.06165,761.70054"
           sodipodi:nodetypes="csccscc" />
        <path
           sodipodi:nodetypes="cccscssc"
           style="fill:#800000;fill-rule:evenodd;stroke:none;stroke-width:1px;stroke-linecap:butt;stroke-linejoin:miter;stroke-opacity:1"
           d="M 349.51278,777.60069 C 349.87265,770.04345 358.65493,711.17796 356.76879,691.72916 C 310.99354,690.4664 248.96054,691.37937 225.01572,672.22156 C 225.26383,671.35643 212.75416,651.87446 219.16885,644.8595 C 275.88723,582.83359 311.63206,620.76782 327.7945,620.52197 C 327.7945,620.52197 424.26407,649.81639 429.31483,644.26055 C 434.36559,638.70471 407.09148,759.41794 399.01026,763.96363 C 390.92904,768.50932 380.32243,778.10577 349.51278,777.60069 z"
           id="path3137" />
        <path
           sodipodi:nodetypes="csccscc"
           d="M 400.06165,761.70054 C 400.06165,772.18329 366.0307,780.69103 324.09971,780.69103 C 282.16872,780.69103 248.13778,772.18329 248.13778,761.70054 L 218.44315,648.64804 C 218.44315,634.06743 265.77728,622.2339 324.09971,622.2339 C 382.42213,622.2339 429.75627,634.06743 429.75627,648.64804 L 400.06165,761.70054"
           style="fill:none;fill-opacity:1;fill-rule:evenodd;stroke:#28170b;stroke-width:6.73032284;stroke-linecap:butt;stroke-linejoin:miter;marker:none;marker-start:none;marker-mid:none;marker-end:none;stroke-miterlimit:4;stroke-dashoffset:0;stroke-opacity:1;visibility:visible;display:inline;overflow:visible;enable-background:accumulate"
           id="path3139" />
      </g>
      <g
         id="g3154">
        <rect
           transform="translate(0,-62)"
           y="534.15393"
           x="285.87317"
           height="126.71377"
           width="86.33741"
           id="rect3117"
           style="opacity:1;fill:#784421;fill-opacity:1;fill-rule:evenodd;stroke:#28170b;stroke-width:9.10000038;stroke-linecap:butt;stroke-linejoin:miter;marker:none;marker-start:none;marker-mid:none;marker-end:none;stroke-miterlimit:4;stroke-dasharray:none;stroke-dashoffset:0;stroke-opacity:1;visibility:visible;display:inline;overflow:visible;enable-background:accumulate" />
        <path
           transform="translate(0,-62)"
           sodipodi:nodetypes="cccccscc"
           id="rect3119"
           d="M 339.94305,535.69586 L 364.25957,535.69586 L 365.331,652.15059 L 341.01448,652.15059 L 337.67021,596.78339 C 329.22042,595.46751 294.24702,593.76433 294.1229,590.17127 L 293.74126,579.12364 L 339.94305,535.69586 z"
           style="fill:#502d16;fill-opacity:1;fill-rule:evenodd;stroke:#502d16;stroke-width:7.63821936;stroke-linecap:butt;stroke-linejoin:miter;marker:none;marker-start:none;marker-mid:none;marker-end:none;stroke-miterlimit:4;stroke-dashoffset:0;stroke-opacity:1;visibility:visible;display:inline;overflow:visible;enable-background:accumulate" />
        <path
           sodipodi:nodetypes="csscsscc"
           id="path3132"
           d="M -1.4285736,686.64789 C -1.4285736,704.78503 -65.748573,719.50503 -145,719.50503 C -224.25143,719.50503 -288.57143,704.78503 -288.57143,686.64789 C -288.57143,672.78332 -250.98586,660.91556 -197.87643,656.09357 C -196.58869,663.43279 -196.7203,690.82227 -196.09048,691.36728 C -177.2958,707.63132 -94.798512,704.88873 -77.031203,692.70348 C -76.121721,692.07974 -77.473041,658.54378 -76.871837,657.72254 C -31.960476,663.27786 -1.4285736,674.15184 -1.4285736,686.64789 z"
           style="fill:#800000;fill-opacity:1;fill-rule:evenodd;stroke:#28170b;stroke-width:9.10000038;stroke-linecap:butt;stroke-linejoin:miter;marker:none;marker-start:none;marker-mid:none;marker-end:none;stroke-miterlimit:4;stroke-dashoffset:0;stroke-opacity:1;visibility:visible;display:inline;overflow:visible;enable-background:accumulate"
           transform="matrix(0.7395959,0,0,0.7395959,430.81283,75.63639)" />
        <path
           transform="matrix(0.7395959,0,0,0.7395959,430.81283,75.63639)"
           style="fill:#552200;fill-opacity:1;fill-rule:evenodd;stroke:#28170b;stroke-width:9.10000038;stroke-linecap:butt;stroke-linejoin:miter;marker:none;marker-start:none;marker-mid:none;marker-end:none;stroke-miterlimit:4;stroke-dashoffset:0;stroke-opacity:1;visibility:visible;display:inline;overflow:visible;enable-background:accumulate"
           d="M -8.9133559,699.20301 C -15.915249,704.30214 -65.748573,719.50503 -145,719.50503 C -224.25143,719.50503 -267.08286,704.54359 -276.01631,697.75434 C -287.05486,689.36526 -250.50297,673.22923 -197.39354,668.40724 C -196.1058,675.74646 -196.7203,690.82227 -196.09048,691.36728 C -177.2958,707.63132 -94.798512,704.88873 -77.031203,692.70348 C -76.121721,692.07974 -77.473041,671.58179 -76.871837,670.76055 C -31.960476,676.31587 -8.9133559,686.70696 -8.9133559,699.20301 z"
           id="path3135"
           sodipodi:nodetypes="csscsscc" />
        <path
           style="opacity:1;fill:#88aa00;fill-opacity:1;fill-rule:evenodd;stroke:#22280b;stroke-width:10;stroke-linecap:butt;stroke-linejoin:miter;marker:none;marker-start:none;marker-mid:none;marker-end:none;stroke-miterlimit:4;stroke-dasharray:none;stroke-dashoffset:0;stroke-opacity:0.79617836;visibility:visible;display:inline;overflow:visible;enable-background:accumulate"
           d="M 319.875,38.03125 C 289.60438,89.802106 248.47583,138.17053 191.375,165.40625 C 214.51453,199.75798 227.2301,201.66904 239.15625,206 C 210.226,241.51479 164.20171,283.67743 113.17411,303.29911 C 129.04606,319.87714 138.61405,328.92917 154.40625,341.34375 C 113.12085,406.81437 60.705059,426.4032 7.90625,451.71875 C 182.5552,636.05773 477.52897,595.10454 633.03125,453.96875 C 632.97085,453.25435 632.57883,452.61295 632.34375,451.9375 C 577.15154,425.52566 542.72357,424.02619 485.59375,341.34375 C 494.55337,334.22954 518.16807,315.79884 524.78571,296.73214 C 472.00936,273.10832 421.15231,240.74893 400.8125,206 C 417.60161,199.83487 431.14188,192.37943 448.59375,165.40625 C 397.1805,139.3748 358.77709,93.356506 319.875,38.03125 z"
           id="path3092"
           sodipodi:nodetypes="ccccccccccccc" />
        <path
           style="fill:#445500;stroke:none;stroke-width:1px;stroke-linecap:butt;stroke-linejoin:miter;stroke-opacity:1"
           d="M 56.048193,494.74807 C 217.72073,580.49175 419.80679,557.73753 495.19465,506.07917 C 452.52105,478.75455 429.07872,414.24547 415.00783,364.7395 C 407.30366,380.50224 244.48366,368.67879 210.1784,340.20995 C 237.23727,339.65044 380.85598,361.97307 434.84587,329.07932 C 413.63373,320.90504 376.48831,249.38925 362.01634,209.42855 C 361.67632,208.44443 360.38393,207.65685 359.10104,207.65191 C 340.93502,206.67316 313.0091,207.74537 283.26636,182.68279 C 309.87351,181.72407 347.36903,187.90385 375.06155,178.09587 C 353.92715,146.70576 331.99453,90.672605 319.72529,44.085063 C 352.83808,93.359626 393.32524,133.71195 443.14209,165.22725 C 457.69126,173.62985 404.777,204.54533 397.19823,204.59015 C 422.53355,256.31309 498.48373,289.39361 520.44118,300.00479 C 515.99084,315.02911 502.64543,328.66573 483.43839,341.00702 C 521.98302,412.00396 570.2968,423.46222 628.86328,454.08515 C 612.84156,483.50729 542.06477,515.86831 491.21344,543.38548 C 397.20156,594.25811 128.64,580.09479 56.048193,494.74807 z"
           id="path3099"
           sodipodi:nodetypes="cccccccccccccccsc" />
        <path
           sodipodi:nodetypes="ccccccccccccc"
           id="path3101"
           d="M 319.875,38.03125 C 289.60438,89.802106 248.47583,138.17053 191.375,165.40625 C 214.51453,199.75798 227.2301,201.66904 239.15625,206 C 210.226,241.51479 164.20171,283.67743 113.17411,303.29911 C 129.04606,319.87714 138.61405,328.92917 154.40625,341.34375 C 113.12085,406.81437 60.705059,426.4032 7.90625,451.71875 C 182.5552,636.05773 477.52897,595.10454 633.03125,453.96875 C 632.97085,453.25435 632.57883,452.61295 632.34375,451.9375 C 577.15154,425.52566 542.72357,424.02619 485.59375,341.34375 C 494.55337,334.22954 518.16807,315.79884 524.78571,296.73214 C 472.00936,273.10832 421.15231,240.74893 400.8125,206 C 417.60161,199.83487 431.14188,192.37943 448.59375,165.40625 C 397.1805,139.3748 358.77709,93.356506 319.875,38.03125 z"
           style="opacity:1;fill:none;fill-opacity:1;fill-rule:evenodd;stroke:#22280b;stroke-width:10;stroke-linecap:butt;stroke-linejoin:miter;marker:none;marker-start:none;marker-mid:none;marker-end:none;stroke-miterlimit:4;stroke-dasharray:none;stroke-dashoffset:0;stroke-opacity:0.79617836;visibility:visible;display:inline;overflow:visible;enable-background:accumulate" />
      </g>
      <g
         id="g3163">
        <path
           sodipodi:type="star"
           style="opacity:1;fill:#ffdd55;fill-opacity:1;fill-rule:evenodd;stroke:#d4aa00;stroke-width:10;stroke-linecap:butt;stroke-linejoin:miter;marker:none;marker-start:none;marker-mid:none;marker-end:none;stroke-miterlimit:4;stroke-dasharray:none;stroke-dashoffset:0;stroke-opacity:0.79617836;visibility:visible;display:inline;overflow:visible;enable-background:accumulate"
           id="path2402"
           sodipodi:sides="5"
           sodipodi:cx="-320"
           sodipodi:cy="155.21933"
           sodipodi:r1="192.3114"
           sodipodi:r2="104.2158"
           sodipodi:arg1="0.23236672"
           sodipodi:arg2="0.85485273"
           inkscape:flatsided="false"
           inkscape:rounded="0.11"
           inkscape:randomized="0"
           d="M -132.85714,199.50505 C -135.91091,212.75472 -241.28954,224.98338 -251.60008,233.84747 C -262.00294,242.79092 -290.62176,345.68708 -304.28789,346.88781 C -317.83275,348.07788 -362.02668,251.6357 -373.64307,244.56895 C -385.36346,237.43892 -492.06722,242.01747 -497.43225,229.39125 C -502.74966,216.87708 -424.68438,145.04388 -421.55315,131.81229 C -418.39389,118.46224 -455.72163,18.395777 -445.37126,9.3916196 C -435.11275,0.46736655 -342.67182,52.514183 -329.12023,51.403369 C -315.44731,50.282609 -231.81336,-16.140413 -220.05146,-9.0790691 C -208.39393,-2.0803886 -229.32758,101.91951 -224.08346,114.46458 C -218.79239,127.12196 -129.77603,186.13674 -132.85714,199.50505 z"
           transform="matrix(0.1463263,-8.6582686e-2,8.6582686e-2,0.1463263,354.27676,-29.831686)" />
        <path
           style="fill:#ffeeaa;fill-rule:evenodd;stroke:#ffeeaa;stroke-width:1px;stroke-linecap:butt;stroke-linejoin:miter;stroke-opacity:1"
           d="M 291.02243,9.8521576 C 298.03097,12.703167 305.71637,11.490591 313.06477,11.587849 C 321.14081,11.267052 320.65348,-5.501269 321.19407,-11.647085 C 319.22813,-5.5814653 314.15059,1.5123551 310.8571,6.8479003 M 304.75685,26.504363 C 306.37819,27.854084 310.20608,32.625958 308.91463,34.644486 C 306.55598,38.655362 302.97613,41.689787 301.19382,45.070637 C 302.54641,39.846124 304.24911,33.31544 304.75685,26.504363 z M 332.08652,7.1115909 C 332.71985,10.646431 336.84408,11.677825 339.90516,11.034893 C 342.80302,10.703951 349.22584,11.631026 351.84803,10.754002"
           id="path3105"
           sodipodi:nodetypes="ccccccccccc" />
        <path
           transform="matrix(0.1463263,-8.6582686e-2,8.6582686e-2,0.1463263,354.27676,-29.831686)"
           d="M -132.85714,199.50505 C -135.91091,212.75472 -241.28954,224.98338 -251.60008,233.84747 C -262.00294,242.79092 -290.62176,345.68708 -304.28789,346.88781 C -317.83275,348.07788 -362.02668,251.6357 -373.64307,244.56895 C -385.36346,237.43892 -492.06722,242.01747 -497.43225,229.39125 C -502.74966,216.87708 -424.68438,145.04388 -421.55315,131.81229 C -418.39389,118.46224 -455.72163,18.395777 -445.37126,9.3916196 C -435.11275,0.46736655 -342.67182,52.514183 -329.12023,51.403369 C -315.44731,50.282609 -231.81336,-16.140413 -220.05146,-9.0790691 C -208.39393,-2.0803886 -229.32758,101.91951 -224.08346,114.46458 C -218.79239,127.12196 -129.77603,186.13674 -132.85714,199.50505 z"
           inkscape:randomized="0"
           inkscape:rounded="0.11"
           inkscape:flatsided="false"
           sodipodi:arg2="0.85485273"
           sodipodi:arg1="0.23236672"
           sodipodi:r2="104.2158"
           sodipodi:r1="192.3114"
           sodipodi:cy="155.21933"
           sodipodi:cx="-320"
           sodipodi:sides="5"
           id="path3115"
           style="opacity:1;fill:none;fill-opacity:1;fill-rule:evenodd;stroke:#d4aa00;stroke-width:10;stroke-linecap:butt;stroke-linejoin:miter;marker:none;marker-start:none;marker-mid:none;marker-end:none;stroke-miterlimit:4;stroke-dasharray:none;stroke-dashoffset:0;stroke-opacity:1;visibility:visible;display:inline;overflow:visible;enable-background:accumulate"
           sodipodi:type="star" />
      </g>
    </g>
  </g>
</svg>
